<svg xmlns="http://www.w3.org/2000/svg" xmlns:xlink="http://www.w3.org/1999/xlink" width="575.124" height="398.028" viewBox="0 0 575.124 398.028">
  <defs>
    <filter id="Rectangle_164981" x="134.843" y="102.129" width="104.671" height="104.671" filterUnits="userSpaceOnUse">
      <feOffset dx="1.714" dy="1.714" input="SourceAlpha"/>
      <feGaussianBlur result="blur"/>
      <feFlood flood-color="#81acea" flood-opacity="0.4"/>
      <feComposite operator="in" in2="blur"/>
      <feComposite in="SourceGraphic"/>
    </filter>
    <filter id="Path_146155" x="392.819" y="96.092" width="99.026" height="20.271" filterUnits="userSpaceOnUse">
      <feOffset dx="0.857" dy="1.714" input="SourceAlpha"/>
      <feGaussianBlur result="blur-2"/>
      <feFlood flood-color="#81acea" flood-opacity="0.4"/>
      <feComposite operator="in" in2="blur-2"/>
      <feComposite in="SourceGraphic"/>
    </filter>
    <filter id="Path_146156" x="392.819" y="156.713" width="99.026" height="20.271" filterUnits="userSpaceOnUse">
      <feOffset dx="0.857" dy="1.714" input="SourceAlpha"/>
      <feGaussianBlur result="blur-3"/>
      <feFlood flood-color="#81acea" flood-opacity="0.4"/>
      <feComposite operator="in" in2="blur-3"/>
      <feComposite in="SourceGraphic"/>
    </filter>
    <filter id="Path_146157" x="367.423" y="126.401" width="99.027" height="20.272" filterUnits="userSpaceOnUse">
      <feOffset dx="0.857" dy="1.714" input="SourceAlpha"/>
      <feGaussianBlur result="blur-4"/>
      <feFlood flood-color="#81acea" flood-opacity="0.4"/>
      <feComposite operator="in" in2="blur-4"/>
      <feComposite in="SourceGraphic"/>
    </filter>
  </defs>
  <g id="Vidyalaya_Nepal_1" transform="translate(-2817 -10214.072)">
    <path id="Path_146179" data-name="Path 146179" d="M108.955,317.452c4.821,39.172,32.637,32.654,37.029,78.2,1.567,16.256-10.289,26.476-16.18,40.551-6.524,15.557-4.213,29.536,4.6,40.2H617.885c10.688-4.9,20.887-10.1,29.764-16.36,12.221-8.594,21.893-19.187,26.825-33.711,4.452-13.123,7.882-25.783-3.813-35.737-6.349-5.412-12.958-9.588-18.7-14.6a45.371,45.371,0,0,1-11.033-13.626C619.847,321.239,646.884,285,656.813,243.85c.958-4,1.835-8.037,2.534-12.089,1.821-10.321,2.668-20.792,1.588-30.991a68.2,68.2,0,0,0-8.478-27.075c-7.373-12.892-26.472-31.929-46.995-28.3-15.421,2.734-25.125,17.773-39.049,23.213-17.547,6.854-37.014,1.373-50.159-8.7-25.566-19.6-41.949-56.843-85.644-53.429-14.816,1.156-24.818,13.055-37.809,18.508-17.859,7.506-35.476,7.451-52.543.149-19.628-8.4-33.095-24.015-52.368-32.949a130.571,130.571,0,0,0-20.349-7.438c-15.5-4.27-32.458-5.78-48.448-2.489a94.389,94.389,0,0,0-9.65,2.489c-53.458,16.74-55.974,71.569-53.458,111.577,1.154,18.331,15.58,49.943,4.923,68.883S104.292,279.573,108.955,317.452Z" transform="translate(2708.376 10133.6)" fill="rgba(252,79,25,0.99)" opacity="0.1"/>
    <g id="Group_317272" data-name="Group 317272" transform="translate(-60 66)">
      <g id="Group_317271" data-name="Group 317271" transform="translate(2887 10193)">
        <g id="Group_317255" data-name="Group 317255" transform="translate(43.583 0)">
          <rect id="Rectangle_164972" data-name="Rectangle 164972" width="429.115" height="7.181" transform="translate(46.214 263.855)" fill="#3d61b7"/>
          <path id="Path_146066" data-name="Path 146066" d="M655.542,298.973A22.272,22.272,0,0,0,677.761,321.3h477.1a22.271,22.271,0,0,0,22.218-22.326Z" transform="translate(-655.542 -27.937)" fill="#709de1"/>
          <path id="Path_146067" data-name="Path 146067" d="M899.638,306H812.482a20.765,20.765,0,0,1-15.573-7.03h118.3A20.767,20.767,0,0,1,899.638,306Z" transform="translate(-595.288 -27.937)" fill="#5c9bff" opacity="0.8" style="mix-blend-mode: multiply;isolation: isolate"/>
          <rect id="Rectangle_164973" data-name="Rectangle 164973" width="437.151" height="265.517" rx="4.594" transform="translate(42.196)" fill="#2b478b"/>
          <rect id="Rectangle_164974" data-name="Rectangle 164974" width="412.995" height="228.08" transform="translate(54.274 24.128)" fill="#ffeedf"/>
          <rect id="Rectangle_164975" data-name="Rectangle 164975" width="2.296" height="228.024" transform="translate(54.274 24.128)" fill="#5c9bff" opacity="0.5"/>
          <path id="Path_146068" data-name="Path 146068" d="M835.755,119.941a4.128,4.128,0,1,1-4.128-4.128A4.127,4.127,0,0,1,835.755,119.941Z" transform="translate(-581.921 -107.648)" fill="#fff" opacity="0.4"/>
        </g>
        <g id="Group_317257" data-name="Group 317257" transform="translate(81.929 201.911)">
          <path id="Path_146069" data-name="Path 146069" d="M744.013,266.085c-4.093-4.669,1.132-9.06,1.718-9.952l.078-.1c2.978-4.093,4.426-10.486.6-14.586a15.509,15.509,0,0,0-16.4-3.984c-6.705,2.446-9.6,8.7-10.491,15.354a16.669,16.669,0,0,0,1.579,8.931Z" transform="translate(-666.102 -236.576)" fill="#141f33"/>
          <path id="Path_146070" data-name="Path 146070" d="M739.905,243.557c.432,3.008,1.1,4.241.688,6.532l-.359.959c-.024.04-.046.08-.072.121l.033-.019-1.091,2.908a7.114,7.114,0,1,1-13.32-5l1.229-3.271C729.121,242.956,736.558,247.278,739.905,243.557Z" transform="translate(-663.517 -233.538)" fill="#e7afa7"/>
          <path id="Path_146071" data-name="Path 146071" d="M729.193,247.269a2.68,2.68,0,1,1-1.567-3.449A2.681,2.681,0,0,1,729.193,247.269Z" transform="translate(-664.094 -233.498)" fill="#e7afa7"/>
          <path id="Path_146072" data-name="Path 146072" d="M728.665,250.907c-.791.758-10.107,12.162-10.107,12.162l13.545,2.048.788-10.1Z" transform="translate(-666.464 -230.339)" fill="#e7afa7"/>
          <g id="Group_317256" data-name="Group 317256" transform="translate(62.415 31.989)">
            <path id="Path_146073" data-name="Path 146073" d="M742.964,279.982a4.287,4.287,0,1,1-6.062-.009A4.287,4.287,0,0,1,742.964,279.982Z" transform="translate(-721.444 -250.223)" fill="#e7afa7"/>
            <path id="Path_146074" data-name="Path 146074" d="M748.335,290.289l-7.737,3.694-13.921-26.66a5.514,5.514,0,0,1,2.213-8.034h0c3.028-1.445,9.116,1.018,10.118,4.221Z" transform="translate(-725.749 -258.865)" fill="#e7afa7"/>
          </g>
          <path id="Path_146075" data-name="Path 146075" d="M787.44,302.969H730.233l-2.548-14.8,50.288,3.443A11.54,11.54,0,0,1,787.44,302.969Z" transform="translate(-662.491 -214.121)" fill="#092244"/>
          <path id="Path_146076" data-name="Path 146076" d="M773.011,339.98h3.757l-2.71-12.619h-5.5Z" transform="translate(-644.703 -197.067)" fill="#e7afa7"/>
          <path id="Path_146077" data-name="Path 146077" d="M751.8,338.89h3.757l2.87-11.529h-5.5Z" transform="translate(-651.997 -197.067)" fill="#e7afa7"/>
          <path id="Path_146078" data-name="Path 146078" d="M757.578,334.535l-3.01,1.32-2.794-1.32-2.507,8.186h23.25c0-4.093-8.74-4.093-8.74-4.093Z" transform="translate(-653.099 -193.944)" fill="#1b3874"/>
          <path id="Path_146079" data-name="Path 146079" d="M777.2,334.535l-3.008,1.32-2.794-1.32-2.507,8.186h23.249c0-4.093-8.74-4.093-8.74-4.093Z" transform="translate(-644.558 -193.944)" fill="#1b3874"/>
          <path id="Path_146080" data-name="Path 146080" d="M780.255,343.9h-5.494l-18-45.416h18.018Z" transform="translate(-649.835 -209.634)" fill="#092244"/>
          <path id="Path_146081" data-name="Path 146081" d="M783.1,306.558l-17.59,3.657-50.553-25.261,58.677,10.252A11.542,11.542,0,0,1,783.1,306.558Z" transform="translate(-668.033 -215.522)" fill="#082246"/>
          <path id="Path_146082" data-name="Path 146082" d="M716.829,283.535c-.406,2.967-4.422,6.79-4.283,15.659.082,5.322,3.584,8.621,7.566,10.411,3.33,1.5,7.861,1.227,10.672,1.227h35.77l-20.994-20.64Z" transform="translate(-669.081 -216.139)" fill="#082246"/>
          <path id="Path_146083" data-name="Path 146083" d="M758.417,343.237h-5.494l-2.747-39.573,17.59-3.657Z" transform="translate(-652.703 -208.971)" fill="#082246"/>
          <path id="Path_146084" data-name="Path 146084" d="M765.644,290.8l-26.1-3.524-2.041-8.54,28.139,7.873Z" transform="translate(-658.218 -218.229)" fill="#e7afa7"/>
          <path id="Path_146085" data-name="Path 146085" d="M715.958,297.46l1.635-7.516-4.951-29.112a4.941,4.941,0,0,1,5.807-4.534l19.807,1.883a4.942,4.942,0,0,1,3.859,6.276l-5.072,35.434Z" transform="translate(-669.039 -228.028)" fill="#f6a60d"/>
          <path id="Path_146086" data-name="Path 146086" d="M744.53,277.133l-10.1,4.321-8.07-13.221a7.089,7.089,0,0,1,3.838-10.277h0a7.089,7.089,0,0,1,8.918,4.2Z" transform="translate(-663.486 -227.437)" fill="#f6a60d"/>
          <path id="Path_146087" data-name="Path 146087" d="M773.954,291.543l-40.892-2.117v-1.252l40.892,2.117Z" transform="translate(-660.152 -214.121)" fill="#222b3b"/>
          <path id="Path_146088" data-name="Path 146088" d="M770.767,296.227l-27.285-1.149,7.41-19.807h27.317Z" transform="translate(-655.616 -219.736)" fill="#222b3b"/>
          <path id="Path_146089" data-name="Path 146089" d="M737.871,291.9,710.6,288.418l-.866-8.583,28.139,7.873Z" transform="translate(-670.305 -217.75)" fill="#e7afa7"/>
          <path id="Path_146090" data-name="Path 146090" d="M716.283,283.532a4.286,4.286,0,1,1-4.841-3.65A4.286,4.286,0,0,1,716.283,283.532Z" transform="translate(-671.167 -217.747)" fill="#e7afa7"/>
          <path id="Path_146091" data-name="Path 146091" d="M729.338,285.681l3.535-.9a9.347,9.347,0,0,1,8.212,1.81l4.614,3.757-16.361-.517Z" transform="translate(-661.772 -215.724)" fill="#e7afa7"/>
          <rect id="Rectangle_164976" data-name="Rectangle 164976" width="55.106" height="54.083" transform="translate(21.508 94.693)" fill="#193370"/>
          <rect id="Rectangle_164977" data-name="Rectangle 164977" width="21.508" height="54.083" transform="translate(0 94.693)" fill="#2b478b"/>
          <path id="Path_146092" data-name="Path 146092" d="M727.869,247.364l-7.291.643v9.045c6.214,4.339,11.305-2.23,11.305-2.23-5.035-3.631-4.4-6.42-4.031-7.42" transform="translate(-665.584 -231.881)" fill="#141f33"/>
          <path id="Path_146093" data-name="Path 146093" d="M716.122,294.891l-8.339-1.992,6.087-30.36c.191-3.351,2.034-4.776,5.325-4.113h0c3.291.663,6.678,6.29,5.554,9.454Z" transform="translate(-671.153 -227.136)" fill="#e7afa7"/>
          <path id="Path_146094" data-name="Path 146094" d="M720.493,280.464,710.039,277.1l2.588-15.272a7.088,7.088,0,0,1,9.639-5.237h0a7.088,7.088,0,0,1,3.971,9.025Z" transform="translate(-670.171 -228.096)" fill="#f6a60d"/>
          <path id="Path_146095" data-name="Path 146095" d="M718.558,256.431,732.2,270.177l1.565-12.377Z" transform="translate(-666.463 -227.935)" fill="#e7afa7"/>
        </g>
        <g id="Group_317259" data-name="Group 317259" transform="translate(337.941 177.646)">
          <circle id="Ellipse_5061" data-name="Ellipse 5061" cx="13.375" cy="13.375" r="13.375" transform="translate(83.486 18.915) rotate(-45)" fill="#001868"/>
          <path id="Path_146096" data-name="Path 146096" d="M956.82,332.308h-16a10.15,10.15,0,0,0-10.138,10.14,1.243,1.243,0,1,0,2.486,0,7.661,7.661,0,0,1,7.652-7.654h.867a10.11,10.11,0,0,0-3.509,7.654,1.243,1.243,0,1,0,2.486,0,7.669,7.669,0,0,1,7.69-7.654h.969a7.662,7.662,0,0,1,7.652,7.654,1.243,1.243,0,0,0,2.486,0,10.1,10.1,0,0,0-3.515-7.654h.873a7.661,7.661,0,0,1,7.652,7.654,1.243,1.243,0,0,0,2.486,0A10.15,10.15,0,0,0,956.82,332.308Z" transform="translate(-832.697 -171.649)" fill="#12285d"/>
          <rect id="Rectangle_164978" data-name="Rectangle 164978" width="4.373" height="44.495" transform="translate(113.937 119.679)" fill="#12285d"/>
          <path id="Path_146097" data-name="Path 146097" d="M969.324,306.781h-38.56a2.892,2.892,0,0,1-2.892-2.892h0A2.892,2.892,0,0,1,930.765,301h38.56a2.892,2.892,0,0,1,2.892,2.892h0A2.892,2.892,0,0,1,969.324,306.781Z" transform="translate(-833.921 -185.275)" fill="#f99746"/>
          <path id="Path_146098" data-name="Path 146098" d="M916.271,366.656h0a1.132,1.132,0,0,0,1.1-1.4L896.929,279.38h-4.492l22.739,86.432A1.132,1.132,0,0,0,916.271,366.656Z" transform="translate(-849.342 -194.683)" fill="#1b3874"/>
          <path id="Path_146099" data-name="Path 146099" d="M934.411,255.165l12.8,1.03-6.2-15.1-9.457,2.1Z" transform="translate(-832.319 -211.343)" fill="#c8987e"/>
          <path id="Path_146100" data-name="Path 146100" d="M937.143,236.617a2.183,2.183,0,1,0,1.764-2.532A2.181,2.181,0,0,0,937.143,236.617Z" transform="translate(-829.901 -214.41)" fill="#c8987e"/>
          <path id="Path_146101" data-name="Path 146101" d="M930.76,230.711a6.819,6.819,0,0,0-3.806,3.209,6.628,6.628,0,0,0-.68,4.277h0l.228,1.282c.02.055.037.111.06.166l-.036-.03.639,3.574c.881,4.927,5.3,8.512,9.986,7.753a8.834,8.834,0,0,0,7.011-10.46l-.782-4.379,0-.009S941.793,227.534,930.76,230.711Z" transform="translate(-834.658 -216.171)" fill="#c8987e"/>
          <path id="Path_146102" data-name="Path 146102" d="M930.584,231.067a15.514,15.514,0,0,1,3.4-.271,7.374,7.374,0,0,1,2.486.446c2.58,1.013,2.15,5.323,2.161,7.486,0,.528.01,1.155.449,1.45a1.1,1.1,0,0,0,1.444-.505,5.172,5.172,0,0,0,.432-1.65,1.818,1.818,0,0,1,.887-1.391l-3.437-8.6c-.026-.063-5.54,1.778-5.965,1.915A6.857,6.857,0,0,0,930.584,231.067Z" transform="translate(-832.741 -217.032)" fill="#001868"/>
          <g id="Group_317258" data-name="Group 317258" transform="translate(81.515 42.142)">
            <path id="Path_146103" data-name="Path 146103" d="M920.128,272.161a4.287,4.287,0,1,0,6.021-.712A4.287,4.287,0,0,0,920.128,272.161Z" transform="translate(-919.207 -240.677)" fill="#c8987e"/>
            <path id="Path_146104" data-name="Path 146104" d="M919.247,282.988l8.112,2.774L938.1,257.671a5.514,5.514,0,0,0-3.127-7.724h0c-3.176-1.086-8.938,2.065-9.563,5.363Z" transform="translate(-919.19 -249.729)" fill="#c8987e"/>
          </g>
          <path id="Path_146105" data-name="Path 146105" d="M901.626,301.3h51.739l-4.8-14.48-37.472,3.127A11.54,11.54,0,0,0,901.626,301.3Z" transform="translate(-845.343 -191.444)" fill="#ddd"/>
          <path id="Path_146106" data-name="Path 146106" d="M891.282,339.932h-3.757l5.991-12.619h5.5Z" transform="translate(-851.48 -173.822)" fill="#c8987e"/>
          <path id="Path_146107" data-name="Path 146107" d="M921.156,338.842H917.4l-2.87-11.529h5.5Z" transform="translate(-839.728 -173.822)" fill="#c8987e"/>
          <path id="Path_146108" data-name="Path 146108" d="M920.418,334.488l3.01,1.319,2.793-1.319,2.509,8.185h-23.25c0-4.093,8.74-4.093,8.74-4.093Z" transform="translate(-843.667 -170.7)" fill="#1b3874"/>
          <path id="Path_146109" data-name="Path 146109" d="M891.65,334.488l3.01,1.319,2.794-1.319,2.507,8.185H876.712c0-4.093,8.739-4.093,8.739-4.093Z" transform="translate(-856.186 -170.7)" fill="#1b3874"/>
          <path id="Path_146110" data-name="Path 146110" d="M887.148,351.262l8.774,2.187,31.116-55.257-18.3-4.22Z" transform="translate(-851.644 -188.333)" fill="#ddd"/>
          <path id="Path_146111" data-name="Path 146111" d="M908.514,303.491l17.59,3.657,47.139-20.327-27.678,0-27.585,5.315A11.539,11.539,0,0,0,908.514,303.491Z" transform="translate(-842.346 -191.444)" fill="#f5f5f5"/>
          <path id="Path_146112" data-name="Path 146112" d="M967.909,286.821a23.76,23.76,0,0,1,1.4,8.689c-.083,5.32-3.585,8.621-7.566,10.41-3.331,1.5-7.862,1.229-10.672,1.229h-30.3l19.463-20.324Z" transform="translate(-837.012 -191.444)" fill="#f5f5f5"/>
          <path id="Path_146113" data-name="Path 146113" d="M917.863,349.319l8.774,1.093-.533-48.32-17.59-3.657Z" transform="translate(-842.346 -186.39)" fill="#f5f5f5"/>
          <path id="Path_146114" data-name="Path 146114" d="M903.931,281.606l25.758-2.1,2.381-9.963-28.139,7.873Z" transform="translate(-844.34 -198.964)" fill="#c8987e"/>
          <path id="Path_146115" data-name="Path 146115" d="M965.485,304.273l-8.28-57.553-29.43,2.737-1.434,8.129c-.208,14.5,15.236,39.467,11.466,46.69Z" transform="translate(-834.588 -208.896)" fill="rgba(254,120,78,0.99)"/>
          <path id="Path_146116" data-name="Path 146116" d="M920.311,274.438l11.622,3.126,6.206-19.088a7.088,7.088,0,0,0-5-9.764h0a7.088,7.088,0,0,0-8.371,5.207Z" transform="translate(-837.212 -208.1)" fill="rgba(254,120,78,0.99)"/>
          <path id="Path_146117" data-name="Path 146117" d="M933.227,282.708l26.617-2.378,1.523-9.686-28.139,7.873Z" transform="translate(-831.591 -198.485)" fill="#c8987e"/>
          <path id="Path_146118" data-name="Path 146118" d="M948.443,274.818a4.846,4.846,0,1,0,5.472-4.125A4.846,4.846,0,0,0,948.443,274.818Z" transform="translate(-824.989 -198.484)" fill="#c8987e"/>
          <path id="Path_146119" data-name="Path 146119" d="M938.188,276.49l-3.533-.9a9.347,9.347,0,0,0-8.212,1.81l-4.614,3.757,16.36-.517Z" transform="translate(-836.551 -196.459)" fill="#c8987e"/>
          <path id="Path_146120" data-name="Path 146120" d="M950.5,284.634l9.62-.274-4.069-30.937c-.066-3.357-2.945-4.762-6.257-4.222h0c-3.312.54-6.908,6.036-5.9,9.238Z" transform="translate(-827.023 -207.866)" fill="#c8987e"/>
          <path id="Path_146121" data-name="Path 146121" d="M947.795,277.133l11.88-2.118-2.7-21.626A7.089,7.089,0,0,0,948.055,247h0A7.088,7.088,0,0,0,943,255.464Z" transform="translate(-827.42 -208.882)" fill="rgba(254,120,78,0.99)"/>
          <path id="Path_146122" data-name="Path 146122" d="M1004.536,281.336H871.065a1.972,1.972,0,0,1-1.972-1.972h0a1.971,1.971,0,0,1,1.972-1.971h133.471a1.971,1.971,0,0,1,1.972,1.971h0A1.972,1.972,0,0,1,1004.536,281.336Z" transform="translate(-859.502 -195.548)" fill="#1b3874"/>
          <path id="Path_146123" data-name="Path 146123" d="M863.542,366.656h0a1.132,1.132,0,0,1-1.1-1.4l20.442-85.881h4.494l-22.739,86.432A1.133,1.133,0,0,1,863.542,366.656Z" transform="translate(-862.41 -194.683)" fill="#1b3874"/>
          <path id="Path_146124" data-name="Path 146124" d="M980.453,366.656h0a1.132,1.132,0,0,0,1.1-1.4L961.113,279.38h-4.494l22.739,86.432A1.133,1.133,0,0,0,980.453,366.656Z" transform="translate(-821.41 -194.683)" fill="#1b3874"/>
          <path id="Path_146125" data-name="Path 146125" d="M927.724,366.656h0a1.132,1.132,0,0,1-1.1-1.4l20.442-85.881h4.494l-22.739,86.432A1.133,1.133,0,0,1,927.724,366.656Z" transform="translate(-834.478 -194.683)" fill="#1b3874"/>
          <path id="Path_146126" data-name="Path 146126" d="M931.531,248.648l.24.774a7.461,7.461,0,0,0,7.139,5.289h0a7.461,7.461,0,0,0,7.427-6.753l.063-.66Z" transform="translate(-832.329 -208.645)" fill="#c8987e"/>
          <path id="Path_146127" data-name="Path 146127" d="M926.527,282.673H894.676l-9.84-19.807h31.851Z" transform="translate(-852.651 -201.87)" fill="#1e1616"/>
          <rect id="Rectangle_164979" data-name="Rectangle 164979" width="40.998" height="1.592" transform="translate(44.477 80.252)" fill="#1e1616"/>
        </g>
        <g id="Group_317260" data-name="Group 317260" transform="translate(242.357 127.917)">
          <path id="Path_146128" data-name="Path 146128" d="M855.3,226.305l7.338-8.983L838,195.586a5.413,5.413,0,0,0-8.087,1.231h0c-1.758,2.786-.243,8.7,3.345,12.028S855.3,226.305,855.3,226.305Z" transform="translate(-780.109 -156.984)" fill="#fea55c"/>
          <rect id="Rectangle_164980" data-name="Rectangle 164980" width="4.635" height="5.712" transform="translate(41.286 210.863)" fill="#e7afa7"/>
          <path id="Path_146129" data-name="Path 146129" d="M796.954,320.931h4.635l2.137-5.712h-4.635Z" transform="translate(-794.134 -104.356)" fill="#e7afa7"/>
          <path id="Path_146130" data-name="Path 146130" d="M829.882,199.855l-12.52,1.007L821.29,186.1l7.177,1.13Z" transform="translate(-785.252 -160.55)" fill="#e7afa7"/>
          <path id="Path_146131" data-name="Path 146131" d="M814.137,250.318l-7.261-49.6a4.577,4.577,0,0,1,3.825-5.652l33.2-.842a4.58,4.58,0,0,1,5.193,4.43l-2.434,49.262Z" transform="translate(-789.876 -157.032)" fill="#fea55c"/>
          <path id="Path_146132" data-name="Path 146132" d="M811.893,234.023l12.445,16.685,2.382,103.479h9.548l8.15-122.564Z" transform="translate(-787.633 -140.738)" fill="#071b39"/>
          <path id="Path_146133" data-name="Path 146133" d="M845.249,231.932l-2.959,16.083a7.771,7.771,0,0,1-7.642,6.364h0l-30.624,99.675H796.2L818.723,233.89Z" transform="translate(-794.462 -140.603)" fill="#071b39"/>
          <path id="Path_146134" data-name="Path 146134" d="M812.357,186.457a11.932,11.932,0,0,0,23.088-3.223c.255-3.321,2.256-6.289,2.348-9.653.1-3.816-3.264-5.785-6.8-5.172-1.909.332-3.7,1.164-5.594,1.572-1.637.353-3.327.383-4.977.663a9.137,9.137,0,0,0-5.006,2.549,12.206,12.206,0,0,0-3.439,6.169A12.543,12.543,0,0,0,812.357,186.457Z" transform="translate(-787.743 -168.297)" fill="#1a55b5"/>
          <path id="Path_146135" data-name="Path 146135" d="M819.046,181.424a2.275,2.275,0,1,1-2.37-2.177A2.275,2.275,0,0,1,819.046,181.424Z" transform="translate(-786.499 -163.533)" fill="#e7afa7"/>
          <path id="Path_146136" data-name="Path 146136" d="M827.879,173.586a7.1,7.1,0,0,1,4.6,2.4,6.916,6.916,0,0,1,1.661,4.2h0l.056,1.355c-.007.062-.011.122-.023.184l.03-.039.158,3.78c.218,5.211-3.463,9.857-8.406,10.145a9.207,9.207,0,0,1-9.5-9.055l-.2-4.633v-.009S815.937,172.847,827.879,173.586Z" transform="translate(-785.733 -166.014)" fill="#e7afa7"/>
          <path id="Path_146137" data-name="Path 146137" d="M825.8,173.547a15.174,15.174,0,0,0-3.3.462,7.2,7.2,0,0,0-2.279.954c-2.248,1.514-.923,5.537-.475,7.605.111.505.237,1.105-.12,1.48a1.071,1.071,0,0,1-1.485-.177,5.028,5.028,0,0,1-.762-1.484,1.774,1.774,0,0,0-1.142-1.138l1.455-8.946c.01-.065,5.666.522,6.1.563A6.706,6.706,0,0,1,825.8,173.547Z" transform="translate(-785.743 -166.555)" fill="#1a55b5"/>
          <path id="Path_146138" data-name="Path 146138" d="M832.47,219.4,809.514,230.33l-1.97-10.929,23.5-6.545Z" transform="translate(-789.525 -148.905)" fill="#fea55c"/>
          <path id="Path_146139" data-name="Path 146139" d="M812.641,218.634a5.8,5.8,0,1,1-8.161.822A5.8,5.8,0,0,1,812.641,218.634Z" transform="translate(-791.428 -146.96)" fill="#fea55c"/>
          <path id="Path_146140" data-name="Path 146140" d="M855.362,210.736a5.8,5.8,0,1,1-8.161.822A5.8,5.8,0,0,1,855.362,210.736Z" transform="translate(-772.835 -150.397)" fill="#fea55c"/>
          <path id="Path_146141" data-name="Path 146141" d="M874.731,207.085l-20.289,16.86-6.432-9.591,25.1-14.633Z" transform="translate(-771.914 -154.622)" fill="#fea55c"/>
          <path id="Path_146142" data-name="Path 146142" d="M814.614,234.348l-11.421-1.857,3.185-31.831a6.454,6.454,0,0,1,7.634-6.071h0c3.862.72,7.807,6.845,7.807,12.677S814.614,234.348,814.614,234.348Z" transform="translate(-791.419 -156.903)" fill="#fea55c"/>
          <path id="Path_146143" data-name="Path 146143" d="M843.917,236.477h-21.73l10.934-31.166h21.73Z" transform="translate(-783.153 -152.189)" fill="#f6a60d"/>
          <path id="Path_146144" data-name="Path 146144" d="M837.256,213.744h0a2.74,2.74,0,0,1-2.332,3.279l-6.237.807-3.341,2.133-1.429-5.451,1.4-1.074a9.07,9.07,0,0,1,5.521-1.874h3.737A2.742,2.742,0,0,1,837.256,213.744Z" transform="translate(-782.4 -149.467)" fill="#e7afa7"/>
          <path id="Path_146145" data-name="Path 146145" d="M880.864,197.908h-8.422a9.07,9.07,0,0,0-5.521,1.874l-1.4,1.074.979,5.739,3.792-2.421,3.549,1.171a3.772,3.772,0,0,0,4.5-5.544h2.519a.947.947,0,0,0,0-1.893Z" transform="translate(-764.293 -155.41)" fill="#e7afa7"/>
          <path id="Path_146146" data-name="Path 146146" d="M803.3,317.4l-3.01,1.319L797.5,317.4l-2.507,8.185h23.249c0-4.093-8.739-4.093-8.739-4.093Z" transform="translate(-794.989 -103.409)" fill="#08101a"/>
          <path id="Path_146147" data-name="Path 146147" d="M830.074,317.4l-3.008,1.319-2.794-1.319-2.507,8.185h23.249c0-4.093-8.74-4.093-8.74-4.093Z" transform="translate(-783.336 -103.409)" fill="#08101a"/>
        </g>
        <g id="Group_317261" data-name="Group 317261" transform="translate(124.843 57.2)">
          <g transform="matrix(1, 0, 0, 1, -134.84, -102.13)" filter="url(#Rectangle_164981)">
            <rect id="Rectangle_164981-2" data-name="Rectangle 164981" width="102.957" height="102.957" rx="6.885" transform="translate(134.84 102.13)" fill="#fff"/>
          </g>
          <path id="Path_146148" data-name="Path 146148" d="M802.02,165.876H721.15a2.708,2.708,0,0,1-2.708-2.708h0a2.709,2.709,0,0,1,2.708-2.708H802.02a2.708,2.708,0,0,1,2.708,2.708h0A2.708,2.708,0,0,1,802.02,165.876Z" transform="translate(-710.106 -145.778)" fill="#e8e8e8"/>
          <path id="Path_146149" data-name="Path 146149" d="M802.02,172.683H721.15a2.708,2.708,0,0,1-2.708-2.708h0a2.707,2.707,0,0,1,2.708-2.707H802.02a2.707,2.707,0,0,1,2.708,2.707h0A2.708,2.708,0,0,1,802.02,172.683Z" transform="translate(-710.106 -142.815)" fill="#e8e8e8"/>
          <path id="Path_146150" data-name="Path 146150" d="M727.69,219.544h-9.248V198.337a4.624,4.624,0,0,1,4.624-4.624h0a4.623,4.623,0,0,1,4.624,4.624Z" transform="translate(-710.106 -131.306)" fill="#2b478b"/>
          <path id="Path_146151" data-name="Path 146151" d="M741.109,222.274h-9.247v-30.21a4.623,4.623,0,0,1,4.623-4.624h0a4.623,4.623,0,0,1,4.624,4.624Z" transform="translate(-704.266 -134.036)" fill="#ffca64"/>
          <path id="Path_146152" data-name="Path 146152" d="M754.528,216.814h-9.247v-12.2a4.623,4.623,0,0,1,4.624-4.624h0a4.623,4.623,0,0,1,4.623,4.624Z" transform="translate(-698.426 -128.576)" fill="#d1d5d8"/>
          <path id="Path_146153" data-name="Path 146153" d="M767.948,222.274H758.7v-30.21a4.623,4.623,0,0,1,4.624-4.624h0a4.624,4.624,0,0,1,4.624,4.624Z" transform="translate(-692.586 -134.036)" fill="#ffca64"/>
          <path id="Path_146154" data-name="Path 146154" d="M781.367,225h-9.248V185.791a4.623,4.623,0,0,1,4.624-4.624h0a4.624,4.624,0,0,1,4.624,4.624Z" transform="translate(-686.746 -136.766)" fill="#2b478b"/>
        </g>
        <g id="Group_317265" data-name="Group 317265" transform="translate(357.423 51.163)">
          <g transform="matrix(1, 0, 0, 1, -367.42, -96.09)" filter="url(#Path_146155)">
            <path id="Path_146155-2" data-name="Path 146155" d="M982.218,164.33H902.605a9.278,9.278,0,0,1-9.278-9.279h0a9.278,9.278,0,0,1,9.278-9.279h79.612a9.278,9.278,0,0,1,9.279,9.279h0A9.278,9.278,0,0,1,982.218,164.33Z" transform="translate(-500.51 -49.68)" fill="#f6c157"/>
          </g>
          <g transform="matrix(1, 0, 0, 1, -367.42, -96.09)" filter="url(#Path_146156)">
            <path id="Path_146156-2" data-name="Path 146156" d="M982.218,206.569H902.605a9.278,9.278,0,0,1-9.278-9.279h0a9.278,9.278,0,0,1,9.278-9.279h79.612a9.278,9.278,0,0,1,9.279,9.279h0A9.278,9.278,0,0,1,982.218,206.569Z" transform="translate(-500.51 -31.3)" fill="#fff"/>
          </g>
          <g transform="matrix(1, 0, 0, 1, -367.42, -96.09)" filter="url(#Path_146157)">
            <path id="Path_146157-2" data-name="Path 146157" d="M964.523,185.451H884.911a9.28,9.28,0,0,1-9.278-9.28h0a9.279,9.279,0,0,1,9.278-9.279h79.612a9.28,9.28,0,0,1,9.28,9.279h0A9.28,9.28,0,0,1,964.523,185.451Z" transform="translate(-508.21 -40.49)" fill="#ff8526"/>
          </g>
          <g id="Group_317262" data-name="Group 317262" transform="translate(40.471 6.511)">
            <path id="Path_146158" data-name="Path 146158" d="M957.149,154.921H906.137a2.306,2.306,0,0,1-2.306-2.3h0a2.306,2.306,0,0,1,2.306-2.306h51.011a2.306,2.306,0,0,1,2.306,2.306h0A2.306,2.306,0,0,1,957.149,154.921Z" transform="translate(-903.831 -150.31)" fill="#ffde9b"/>
            <circle id="Ellipse_5062" data-name="Ellipse 5062" cx="2.306" cy="2.306" r="2.306" transform="translate(61.362)" fill="#ffde9b"/>
          </g>
          <g id="Group_317263" data-name="Group 317263" transform="translate(18.521 37.284)">
            <path id="Path_146159" data-name="Path 146159" d="M941.855,176.362H890.843a2.306,2.306,0,0,1-2.306-2.306h0a2.306,2.306,0,0,1,2.306-2.3h51.011a2.305,2.305,0,0,1,2.306,2.3h0A2.305,2.305,0,0,1,941.855,176.362Z" transform="translate(-888.537 -171.751)" fill="#ffbd8a"/>
            <path id="Path_146160" data-name="Path 146160" d="M935.9,174.056a2.306,2.306,0,1,1-2.306-2.3A2.305,2.305,0,0,1,935.9,174.056Z" transform="translate(-869.93 -171.751)" fill="#ffbd8a"/>
          </g>
          <g id="Group_317264" data-name="Group 317264" transform="translate(41.493 68.055)">
            <rect id="Rectangle_164982" data-name="Rectangle 164982" width="55.623" height="4.612" rx="1.607" fill="#ff8b1d"/>
            <path id="Path_146161" data-name="Path 146161" d="M951.911,195.5a2.306,2.306,0,1,1-2.306-2.3A2.306,2.306,0,0,1,951.911,195.5Z" transform="translate(-885.936 -193.191)" fill="#ff8b1d"/>
          </g>
        </g>
        <g id="Group_317267" data-name="Group 317267" transform="translate(499.92 258.233)">
          <g id="Group_317266" data-name="Group 317266">
            <path id="Path_146162" data-name="Path 146162" d="M985.361,340.857c2.878-3.318,6.519-6.181,7.667-10.368.84-3.06.178-6.3-.151-9.454s-.212-6.644,1.828-9.072c1.683-2,4.34-2.87,6.895-3.42s5.223-.9,7.492-2.2c3.681-2.113,2.948-5.7,4.926-8.854,2.217-3.535,7.378-8.044,11.8-5.7,4.686,2.486,3.943,10.033.827,13.367-2.067,2.21-4.715,4.331-5.019,7.342-.458,4.534,4.738,8.615,3.308,12.943-1.055,3.2-5.084,4.3-7.073,7.01-1.969,2.687-1.572,6.45-.413,9.571s2.984,6.008,3.706,9.259c1.474,6.652-3.745,11.249-9.692,12.732-5.465,1.363-17.251.72-17.251.72a22.553,22.553,0,0,1-11.182-9.2,11.706,11.706,0,0,1-.636-10.161A16.973,16.973,0,0,1,985.361,340.857Z" transform="translate(-972.549 -291.148)" fill="#2b478b"/>
            <path id="Path_146163" data-name="Path 146163" d="M1015.507,296.6s-20.123,31.084-22.313,65.6" transform="translate(-967.472 -288.776)" fill="none" stroke="#fff" stroke-linecap="round" stroke-linejoin="round" stroke-width="0.288"/>
            <path id="Path_146164" data-name="Path 146164" d="M1003.533,336.566c2.632,5.748,1.635,18.712-4.113,21.344s-14.069-6.062-16.7-11.81-11.256-36.882-5.508-39.514S1000.9,330.818,1003.533,336.566Z" transform="translate(-975.272 -284.509)" fill="#f6a60d"/>
            <line id="Line_980" data-name="Line 980" x2="20.8" y2="46.86" transform="translate(3.563 25.858)" fill="none" stroke="#1a55b5" stroke-linecap="round" stroke-linejoin="round" stroke-width="0.353"/>
          </g>
          <path id="Path_146165" data-name="Path 146165" d="M1004.82,363.964H993.466a2.389,2.389,0,0,1-2.3-1.747l-5.7-20.4h27.361l-5.7,20.4A2.388,2.388,0,0,1,1004.82,363.964Z" transform="translate(-970.837 -269.098)" fill="#1b3874"/>
        </g>
        <g id="Group_317270" data-name="Group 317270" transform="translate(43.461 266.214)">
          <g id="Group_317268" data-name="Group 317268">
            <path id="Path_146166" data-name="Path 146166" d="M673.887,293.926a4.433,4.433,0,0,1,2.783,1c.075.053.146.108.22.162,3.126,2.4,4.73,6.781,4.771,13.042a60.09,60.09,0,0,1-1.81,14.707,26.064,26.064,0,0,0-1.465-5.879,69.344,69.344,0,0,0-3.7-7.871c-1.028-1.969-2.091-4.006-2.972-6.069a10.664,10.664,0,0,1-1.134-5.534C670.822,295.814,672.126,294.025,673.887,293.926Z" transform="translate(-648.904 -293.922)" fill="#7aa9fe"/>
            <path id="Path_146167" data-name="Path 146167" d="M658.034,306.593a4.423,4.423,0,0,1,2.944-.283c.089.016.178.033.267.053,3.851.828,7.177,4.1,9.891,9.745a59.979,59.979,0,0,1,4.659,14.068,26.126,26.126,0,0,0-3.839-4.687,70.076,70.076,0,0,0-6.714-5.531c-1.771-1.339-3.6-2.724-5.283-4.212a10.671,10.671,0,0,1-3.394-4.518C656.069,309.611,656.484,307.437,658.034,306.593Z" transform="translate(-655.062 -288.581)" fill="#7aa9fe"/>
            <path id="Path_146168" data-name="Path 146168" d="M655.55,320.271a3.025,3.025,0,0,1,1.332-1.521c.052-.034.1-.066.158-.1,2.3-1.392,5.494-1.322,9.487.211a40.921,40.921,0,0,1,8.91,4.814,17.765,17.765,0,0,0-4.106-.531,47.426,47.426,0,0,0-5.93.395c-1.508.164-3.07.334-4.6.38a7.288,7.288,0,0,1-3.8-.656A2.747,2.747,0,0,1,655.55,320.271Z" transform="translate(-655.457 -283.593)" fill="#7aa9fe"/>
            <path id="Path_146169" data-name="Path 146169" d="M670.987,353.929s15.687-20.665,3.944-57.422" transform="translate(-648.699 -292.797)" fill="none" stroke="#1a55b5" stroke-linecap="round" stroke-linejoin="round" stroke-width="0.499"/>
            <path id="Path_146170" data-name="Path 146170" d="M675.829,348.193s4.96-22.461-15.968-38.505" transform="translate(-653.541 -287.061)" fill="none" stroke="#1a55b5" stroke-linecap="round" stroke-linejoin="round" stroke-width="0.499"/>
            <path id="Path_146171" data-name="Path 146171" d="M674.64,323.177s-3.826-3.4-17.185-3.506" transform="translate(-654.588 -282.716)" fill="none" stroke="#1a55b5" stroke-linecap="round" stroke-linejoin="round" stroke-width="0.499"/>
          </g>
          <g id="Group_317269" data-name="Group 317269" transform="translate(30.318 23.184)">
            <path id="Path_146172" data-name="Path 146172" d="M696,313.878a7.609,7.609,0,0,1-2.708,2.975c-1.29.942-2.681,1.8-4.027,2.631a49.639,49.639,0,0,0-5.128,3.47,18.639,18.639,0,0,0-3.035,3.064,42.7,42.7,0,0,1,4.244-9.657c2.3-3.816,4.878-5.914,7.664-6.245.063-.007.128-.014.194-.02a3.157,3.157,0,0,1,2.067.4A2.86,2.86,0,0,1,696,313.878Z" transform="translate(-674.617 -310.076)" fill="#7aa9fe"/>
            <path id="Path_146173" data-name="Path 146173" d="M700.9,327.5a7.6,7.6,0,0,1-3.72,1.53c-1.57.3-3.195.481-4.766.656a49.545,49.545,0,0,0-6.12.943,18.581,18.581,0,0,0-4.054,1.47,42.676,42.676,0,0,1,7.968-6.913c3.713-2.463,6.941-3.258,9.6-2.364.062.02.123.042.184.065a3.153,3.153,0,0,1,1.7,1.244A2.86,2.86,0,0,1,700.9,327.5Z" transform="translate(-674.12 -304.683)" fill="#7aa9fe"/>
            <path id="Path_146174" data-name="Path 146174" d="M694.38,335.213a5.2,5.2,0,0,1-2.566-.983c-.921-.587-1.814-1.259-2.678-1.907a33.638,33.638,0,0,0-3.486-2.4,12.629,12.629,0,0,0-2.705-1.17,29.15,29.15,0,0,1,7.2.3c3,.515,4.979,1.632,5.881,3.323.022.039.042.077.062.118a2.159,2.159,0,0,1,.261,1.415A1.957,1.957,0,0,1,694.38,335.213Z" transform="translate(-673.813 -301.989)" fill="#7aa9fe"/>
            <path id="Path_146175" data-name="Path 146175" d="M676.641,348.2s-2.08-18.353,18.478-36.573" transform="translate(-676.582 -309.399)" fill="none" stroke="#1a55b5" stroke-linecap="round" stroke-linejoin="round" stroke-width="0.499"/>
            <path id="Path_146176" data-name="Path 146176" d="M676.623,342.5s5.137-15.549,23.781-17.752" transform="translate(-676.564 -303.691)" fill="none" stroke="#1a55b5" stroke-linecap="round" stroke-linejoin="round" stroke-width="0.499"/>
            <path id="Path_146177" data-name="Path 146177" d="M682.817,328.878s3.579-.69,11.792,4.106" transform="translate(-673.868 -301.908)" fill="none" stroke="#1a55b5" stroke-linecap="round" stroke-linejoin="round" stroke-width="0.499"/>
          </g>
          <path id="Path_146178" data-name="Path 146178" d="M688.017,361.147h-13.9a2.926,2.926,0,0,1-2.817-2.138l-6.982-24.983h33.5l-6.981,24.983A2.926,2.926,0,0,1,688.017,361.147Z" transform="translate(-651.603 -276.469)" fill="#1b3874"/>
        </g>
      </g>
    </g>
    <path id="Rectangle_164983" data-name="Rectangle 164983" d="M.923,0H569.077A.923.923,0,0,1,570,.923v0a.923.923,0,0,1-.923.923H.923A.923.923,0,0,1,0,.924v0A.923.923,0,0,1,.923,0Z" transform="translate(2817 10610)" fill="#2e3552"/>
  </g>
</svg>
